<svg xmlns="http://www.w3.org/2000/svg" version="1.1" xmlns:xlink="http://www.w3.org/1999/xlink" xmlns:svgjs="http://svgjs.com/svgjs" width="1440" height="900" preserveAspectRatio="none" viewBox="0 0 1440 900"><g mask="url(&quot;#SvgjsMask3572&quot;)" fill="none"><rect width="1440" height="900" x="0" y="0" fill="url(#SvgjsLinearGradient3573)"></rect><path d="M0 0L100.32 0L0 161.36z" fill="rgba(255, 255, 255, .1)"></path><path d="M0 161.36L100.32 0L511.36 0L0 189.12z" fill="rgba(255, 255, 255, .075)"></path><path d="M0 189.12L511.36 0L737.32 0L0 262.79z" fill="rgba(255, 255, 255, .05)"></path><path d="M0 262.79L737.32 0L1191.78 0L0 605.47z" fill="rgba(255, 255, 255, .025)"></path><path d="M1440 900L1120.87 900L1440 580.11z" fill="rgba(0, 0, 0, .1)"></path><path d="M1440 580.11L1120.87 900L1088.4299999999998 900L1440 491.93z" fill="rgba(0, 0, 0, .075)"></path><path d="M1440 491.93L1088.43 900L731.8000000000001 900L1440 220.81z" fill="rgba(0, 0, 0, .05)"></path><path d="M1440 220.80999999999995L731.8 900L342.16999999999996 900L1440 77.20999999999995z" fill="rgba(0, 0, 0, .025)"></path></g><defs><mask id="SvgjsMask3572"><rect width="1440" height="900" fill="#ffffff"></rect></mask><linearGradient x1="90.63%" y1="115%" x2="9.37%" y2="-15%" gradientUnits="userSpaceOnUse" id="SvgjsLinearGradient3573"><stop stop-color="rgba(205, 156, 178, 1)" offset="0.24"></stop><stop stop-color="rgba(255, 240, 246, 1)" offset="0.94"></stop></linearGradient></defs></svg>